<?xml version="1.0" encoding="UTF-8"?>
<svg xmlns="http://www.w3.org/2000/svg" xmlns:xlink="http://www.w3.org/1999/xlink" width="25pt" height="25pt" viewBox="0 0 25 25" version="1.1">
<g id="surface1">
<path style=" stroke:none;fill-rule:nonzero;fill:rgb(0%,0%,0%);fill-opacity:1;" d="M 16.175781 10.742188 L 16.132812 10.742188 L 16.132812 7.53125 C 16.132812 7.09375 15.828125 6.730469 15.421875 6.640625 L 15.421875 3.285156 C 15.421875 2.960938 15.25 2.660156 14.96875 2.496094 L 10.90625 0.125 C 10.625 -0.0390625 10.273438 -0.0429688 9.992188 0.121094 C 9.707031 0.285156 9.53125 0.585938 9.53125 0.914062 L 9.53125 6.652344 C 9.148438 6.761719 8.867188 7.113281 8.867188 7.53125 L 8.867188 10.742188 L 8.824219 10.742188 C 8.320312 10.742188 7.910156 11.152344 7.910156 11.65625 L 7.910156 24.085938 C 7.910156 24.589844 8.320312 25 8.824219 25 L 16.175781 25 C 16.679688 25 17.089844 24.589844 17.089844 24.085938 L 17.089844 11.65625 C 17.089844 11.152344 16.679688 10.742188 16.175781 10.742188 Z M 13.59375 3.808594 L 13.59375 6.617188 L 11.359375 6.617188 L 11.359375 2.507812 Z M 10.695312 8.445312 L 14.304688 8.445312 L 14.304688 10.742188 L 10.695312 10.742188 Z M 15.261719 23.171875 L 9.738281 23.171875 L 9.738281 12.570312 L 15.261719 12.570312 Z M 15.261719 23.171875 "/>
</g>
</svg>
