<?xml version="1.0" encoding="UTF-8"?>
<svg xmlns="http://www.w3.org/2000/svg" xmlns:xlink="http://www.w3.org/1999/xlink" width="25pt" height="25pt" viewBox="0 0 25 25" version="1.1">
<g id="surface1">
<path style=" stroke:none;fill-rule:nonzero;fill:rgb(0%,0%,0%);fill-opacity:1;" d="M 12.609375 6.617188 C 8.75 6.617188 5.609375 9.757812 5.609375 13.613281 C 5.609375 17.472656 8.75 20.613281 12.609375 20.613281 C 16.46875 20.613281 19.605469 17.472656 19.605469 13.613281 C 19.605469 9.757812 16.46875 6.617188 12.609375 6.617188 Z M 12.609375 19.792969 C 9.203125 19.792969 6.433594 17.019531 6.433594 13.613281 C 6.433594 10.207031 9.203125 7.4375 12.609375 7.4375 C 16.015625 7.4375 18.785156 10.207031 18.785156 13.613281 C 18.785156 17.019531 16.015625 19.792969 12.609375 19.792969 Z M 12.609375 19.792969 "/>
<path style=" stroke:none;fill-rule:nonzero;fill:rgb(0%,0%,0%);fill-opacity:1;" d="M 24.785156 4 C 24.65625 3.929688 24.496094 3.933594 24.367188 4.015625 C 24.246094 4.09375 21.335938 6.023438 21.335938 12.472656 C 21.335938 12.699219 21.519531 12.882812 21.746094 12.882812 L 24.179688 12.882812 L 24.179688 20.640625 C 24.179688 20.867188 24.363281 21.050781 24.589844 21.050781 C 24.816406 21.050781 25 20.867188 25 20.640625 L 25 4.359375 C 25 4.210938 24.917969 4.070312 24.785156 4 Z M 22.160156 12.0625 C 22.21875 9.179688 22.910156 7.351562 23.488281 6.316406 C 23.730469 5.890625 23.96875 5.558594 24.179688 5.3125 L 24.179688 12.0625 Z M 22.160156 12.0625 "/>
<path style=" stroke:none;fill-rule:nonzero;fill:rgb(0%,0%,0%);fill-opacity:1;" d="M 4.347656 3.949219 C 4.121094 3.949219 3.9375 4.132812 3.9375 4.359375 L 3.9375 9.5 C 3.9375 9.578125 3.878906 9.636719 3.800781 9.636719 L 2.789062 9.636719 L 2.789062 4.359375 C 2.789062 4.132812 2.605469 3.949219 2.378906 3.949219 C 2.152344 3.949219 1.96875 4.132812 1.96875 4.359375 L 1.96875 9.636719 L 0.957031 9.636719 C 0.882812 9.636719 0.820312 9.578125 0.820312 9.5 L 0.820312 4.359375 C 0.820312 4.132812 0.636719 3.949219 0.410156 3.949219 C 0.183594 3.949219 0 4.132812 0 4.359375 L 0 9.5 C 0 10.027344 0.429688 10.457031 0.957031 10.457031 L 1.96875 10.457031 L 1.96875 20.640625 C 1.96875 20.867188 2.152344 21.050781 2.378906 21.050781 C 2.605469 21.050781 2.789062 20.867188 2.789062 20.640625 L 2.789062 10.457031 L 3.800781 10.457031 C 4.328125 10.457031 4.757812 10.03125 4.757812 9.5 L 4.757812 4.359375 C 4.757812 4.132812 4.574219 3.949219 4.347656 3.949219 Z M 4.347656 3.949219 "/>
</g>
</svg>
