<?xml version="1.0" encoding="UTF-8"?>
<svg xmlns="http://www.w3.org/2000/svg" xmlns:xlink="http://www.w3.org/1999/xlink" width="25pt" height="25pt" viewBox="0 0 25 25" version="1.1">
<g id="surface1">
<path style=" stroke:none;fill-rule:nonzero;fill:rgb(0%,0%,0%);fill-opacity:1;" d="M 2.3125 18.867188 C 2.359375 18.914062 2.421875 18.9375 2.484375 18.9375 C 2.550781 18.9375 2.613281 18.914062 2.660156 18.867188 L 4.453125 17.074219 C 4.546875 16.980469 4.546875 16.824219 4.453125 16.726562 C 4.355469 16.628906 4.199219 16.628906 4.105469 16.726562 L 2.3125 18.519531 C 2.214844 18.613281 2.214844 18.769531 2.3125 18.867188 Z M 2.3125 18.867188 "/>
<path style=" stroke:none;fill-rule:nonzero;fill:rgb(0%,0%,0%);fill-opacity:1;" d="M 3.035156 19.589844 C 3.082031 19.636719 3.144531 19.660156 3.207031 19.660156 C 3.273438 19.660156 3.335938 19.636719 3.382812 19.589844 L 5.175781 17.796875 C 5.269531 17.703125 5.269531 17.546875 5.175781 17.449219 C 5.078125 17.351562 4.921875 17.351562 4.828125 17.449219 L 3.035156 19.242188 C 2.9375 19.335938 2.9375 19.492188 3.035156 19.589844 Z M 3.035156 19.589844 "/>
<path style=" stroke:none;fill-rule:nonzero;fill:rgb(0%,0%,0%);fill-opacity:1;" d="M 5.898438 18.171875 C 5.800781 18.074219 5.644531 18.074219 5.546875 18.171875 L 3.757812 19.964844 C 3.660156 20.058594 3.660156 20.214844 3.757812 20.3125 C 3.804688 20.359375 3.867188 20.382812 3.929688 20.382812 C 3.992188 20.382812 4.058594 20.359375 4.105469 20.3125 L 5.898438 18.519531 C 5.992188 18.421875 5.992188 18.269531 5.898438 18.171875 Z M 5.898438 18.171875 "/>
<path style=" stroke:none;fill-rule:nonzero;fill:rgb(0%,0%,0%);fill-opacity:1;" d="M 6.269531 18.894531 L 4.480469 20.6875 C 4.382812 20.78125 4.382812 20.9375 4.480469 21.035156 C 4.527344 21.082031 4.589844 21.105469 4.652344 21.105469 C 4.714844 21.105469 4.78125 21.082031 4.828125 21.035156 L 6.621094 19.242188 C 6.714844 19.144531 6.714844 18.988281 6.621094 18.894531 C 6.523438 18.796875 6.367188 18.796875 6.269531 18.894531 Z M 6.269531 18.894531 "/>
<path style=" stroke:none;fill-rule:nonzero;fill:rgb(0%,0%,0%);fill-opacity:1;" d="M 5.238281 16.1875 C 5.300781 16.1875 5.363281 16.164062 5.410156 16.117188 L 12.246094 9.28125 C 12.34375 9.1875 12.34375 9.03125 12.246094 8.933594 C 12.148438 8.835938 11.992188 8.835938 11.898438 8.933594 L 5.0625 15.769531 C 4.964844 15.863281 4.964844 16.019531 5.0625 16.117188 C 5.109375 16.164062 5.171875 16.1875 5.238281 16.1875 Z M 5.238281 16.1875 "/>
<path style=" stroke:none;fill-rule:nonzero;fill:rgb(0%,0%,0%);fill-opacity:1;" d="M 5.960938 16.910156 C 6.023438 16.910156 6.085938 16.886719 6.132812 16.839844 L 10.09375 12.878906 C 10.1875 12.785156 10.1875 12.628906 10.09375 12.53125 C 9.996094 12.433594 9.839844 12.433594 9.742188 12.53125 L 5.785156 16.492188 C 5.6875 16.585938 5.6875 16.742188 5.785156 16.839844 C 5.832031 16.886719 5.894531 16.910156 5.960938 16.910156 Z M 5.960938 16.910156 "/>
<path style=" stroke:none;fill-rule:nonzero;fill:rgb(0%,0%,0%);fill-opacity:1;" d="M 7.230469 17.933594 C 7.132812 18.03125 7.132812 18.1875 7.230469 18.285156 C 7.277344 18.332031 7.339844 18.355469 7.402344 18.355469 C 7.46875 18.355469 7.53125 18.332031 7.578125 18.285156 L 12.578125 13.28125 C 12.675781 13.1875 12.675781 13.03125 12.578125 12.933594 C 12.484375 12.839844 12.328125 12.839844 12.230469 12.933594 Z M 7.230469 17.933594 "/>
<path style=" stroke:none;fill-rule:nonzero;fill:rgb(0%,0%,0%);fill-opacity:1;" d="M 24.867188 12.519531 L 21.777344 6.34375 C 21.628906 6.046875 21.375 5.824219 21.058594 5.71875 C 20.742188 5.613281 20.40625 5.640625 20.109375 5.789062 L 19.769531 5.957031 L 16.0625 2.246094 C 15.816406 2.003906 15.496094 1.871094 15.152344 1.871094 C 14.808594 1.871094 14.484375 2.003906 14.242188 2.246094 L 0.375 16.113281 C -0.125 16.613281 -0.125 17.429688 0.375 17.933594 L 5.199219 22.753906 C 5.441406 22.996094 5.765625 23.128906 6.109375 23.128906 C 6.355469 23.128906 6.550781 23.046875 6.609375 23.019531 C 7.976562 22.339844 24.3125 14.1875 24.3125 14.1875 C 24.925781 13.878906 25.175781 13.132812 24.867188 12.519531 Z M 13.019531 6.707031 L 16.421875 3.304688 L 19.929688 6.8125 L 16.527344 10.214844 Z M 16.179688 10.5625 L 4.941406 21.800781 L 1.433594 18.292969 L 12.667969 7.054688 Z M 20.277344 7.160156 L 20.535156 7.417969 C 20.683594 7.566406 20.765625 7.765625 20.765625 7.976562 C 20.765625 8.191406 20.683594 8.390625 20.535156 8.539062 L 17.695312 11.378906 L 16.875 10.5625 Z M 18.007812 11.761719 L 19.28125 14.308594 L 11.636719 18.136719 Z M 10.53125 19.238281 L 19.503906 14.75 L 20.019531 15.78125 L 7.960938 21.808594 Z M 18.375 11.394531 L 20.882812 8.886719 C 21.125 8.644531 21.257812 8.320312 21.257812 7.976562 C 21.257812 7.910156 21.253906 7.84375 21.242188 7.777344 L 21.804688 7.496094 L 24.023438 11.933594 L 19.722656 14.089844 Z M 20.332031 6.226562 C 20.507812 6.136719 20.710938 6.125 20.902344 6.1875 C 21.09375 6.25 21.246094 6.382812 21.335938 6.5625 L 21.582031 7.058594 L 21.074219 7.3125 C 21.019531 7.226562 20.957031 7.140625 20.882812 7.066406 L 20.136719 6.324219 Z M 14.589844 2.59375 C 14.738281 2.445312 14.9375 2.363281 15.152344 2.363281 C 15.363281 2.363281 15.5625 2.445312 15.714844 2.59375 L 16.070312 2.953125 L 12.671875 6.355469 L 11.75 5.4375 Z M 0.726562 16.460938 L 11.402344 5.785156 L 12.320312 6.707031 L 1.085938 17.941406 L 0.726562 17.582031 C 0.414062 17.273438 0.414062 16.769531 0.726562 16.460938 Z M 5.546875 22.40625 L 5.289062 22.148438 L 16.527344 10.910156 L 17.34375 11.730469 L 6.667969 22.40625 C 6.519531 22.554688 6.320312 22.636719 6.109375 22.636719 C 5.894531 22.636719 5.695312 22.554688 5.546875 22.40625 Z M 24.09375 13.746094 L 20.460938 15.5625 L 19.941406 14.527344 L 24.246094 12.375 L 24.429688 12.738281 C 24.613281 13.109375 24.460938 13.5625 24.09375 13.746094 Z M 24.09375 13.746094 "/>
</g>
</svg>
