<?xml version="1.0" encoding="UTF-8"?>
<svg xmlns="http://www.w3.org/2000/svg" xmlns:xlink="http://www.w3.org/1999/xlink" width="25pt" height="25pt" viewBox="0 0 25 25" version="1.1">
<g id="surface1">
<path style=" stroke:none;fill-rule:nonzero;fill:rgb(0%,0%,0%);fill-opacity:1;" d="M 7.050781 5.34375 C 8.488281 5.34375 9.652344 4.179688 9.652344 2.742188 C 9.652344 1.304688 8.488281 0.140625 7.050781 0.140625 C 5.613281 0.140625 4.449219 1.304688 4.449219 2.742188 C 4.449219 4.179688 5.613281 5.34375 7.050781 5.34375 Z M 7.050781 5.34375 "/>
<path style=" stroke:none;fill-rule:nonzero;fill:rgb(0%,0%,0%);fill-opacity:1;" d="M 10.167969 18.339844 C 9.734375 18.277344 9.339844 18.050781 9.0625 17.703125 C 8.734375 17.289062 8.613281 16.753906 8.730469 16.234375 L 8.746094 16.167969 C 8.25 16.230469 7.769531 16.117188 7.371094 15.867188 C 6.898438 15.570312 6.570312 15.109375 6.445312 14.566406 C 6.320312 14.023438 6.414062 13.464844 6.710938 12.992188 L 10.550781 6.871094 C 10.164062 6.320312 9.566406 6.03125 8.953125 6.03125 L 5.148438 6.03125 C 4.375 6.03125 3.703125 6.484375 3.371094 7.152344 L 0.136719 13.707031 C -0.183594 14.359375 0.0820312 15.148438 0.734375 15.46875 C 1.386719 15.792969 2.175781 15.523438 2.496094 14.871094 L 3.554688 12.726562 L 3.898438 17.226562 L 3.898438 23.542969 C 3.898438 24.269531 4.488281 24.859375 5.214844 24.859375 C 5.941406 24.859375 6.53125 24.269531 6.53125 23.542969 L 6.53125 17.585938 L 7.570312 17.585938 L 7.570312 23.542969 C 7.570312 24.269531 8.160156 24.859375 8.886719 24.859375 C 9.53125 24.859375 10.066406 24.394531 10.179688 23.785156 C 10.171875 23.707031 10.167969 23.625 10.167969 23.542969 Z M 10.167969 18.339844 "/>
<path style=" stroke:none;fill-rule:nonzero;fill:rgb(0%,0%,0%);fill-opacity:1;" d="M 16.292969 19.859375 C 15.964844 19.78125 15.671875 19.59375 15.457031 19.324219 C 15.203125 19 15.089844 18.597656 15.136719 18.191406 C 15.132812 18.191406 15.128906 18.191406 15.125 18.191406 C 14.949219 18.191406 14.777344 18.167969 14.609375 18.117188 L 14.609375 23.542969 C 14.609375 24.269531 15.199219 24.859375 15.925781 24.859375 C 16.144531 24.859375 16.347656 24.808594 16.527344 24.714844 C 16.378906 24.449219 16.292969 24.148438 16.292969 23.824219 Z M 16.292969 19.859375 "/>
<path style=" stroke:none;fill-rule:nonzero;fill:rgb(0%,0%,0%);fill-opacity:1;" d="M 13.597656 15.425781 L 16.835938 10.265625 C 17.007812 9.988281 17.246094 9.769531 17.527344 9.625 C 17.066406 9.132812 16.785156 8.472656 16.785156 7.746094 C 16.785156 7.527344 16.8125 7.308594 16.863281 7.101562 L 16.703125 6.847656 C 16.460938 6.464844 16.058594 6.246094 15.636719 6.230469 C 15.507812 6.210938 12.660156 6.214844 12.539062 6.230469 C 12.121094 6.246094 11.714844 6.464844 11.476562 6.847656 L 7.363281 13.398438 C 6.976562 14.015625 7.164062 14.828125 7.777344 15.214844 C 8.394531 15.601562 9.207031 15.414062 9.59375 14.800781 L 10.007812 14.136719 L 9.480469 16.410156 C 9.414062 16.695312 9.484375 16.996094 9.664062 17.222656 C 9.847656 17.453125 10.125 17.585938 10.417969 17.585938 L 10.9375 17.585938 L 10.9375 23.542969 C 10.9375 24.269531 11.523438 24.859375 12.253906 24.859375 C 12.980469 24.859375 13.566406 24.269531 13.566406 23.542969 L 13.566406 17.585938 L 13.777344 17.585938 C 13.257812 17 13.160156 16.121094 13.597656 15.425781 Z M 13.597656 15.425781 "/>
<path style=" stroke:none;fill-rule:nonzero;fill:rgb(0%,0%,0%);fill-opacity:1;" d="M 24.839844 15.835938 L 21.601562 10.671875 C 21.414062 10.371094 21.09375 10.203125 20.765625 10.1875 C 20.714844 10.183594 20.148438 10.179688 19.574219 10.179688 C 18.976562 10.179688 18.371094 10.183594 18.324219 10.1875 C 17.996094 10.203125 17.675781 10.371094 17.488281 10.671875 L 14.246094 15.835938 C 13.945312 16.320312 14.089844 16.960938 14.574219 17.265625 C 15.058594 17.570312 15.699219 17.421875 16.003906 16.9375 L 16.328125 16.417969 L 15.914062 18.203125 C 15.863281 18.429688 15.917969 18.664062 16.0625 18.847656 C 16.203125 19.027344 16.421875 19.132812 16.652344 19.132812 L 17.0625 19.132812 L 17.0625 23.824219 C 17.0625 24.394531 17.527344 24.859375 18.097656 24.859375 C 18.671875 24.859375 19.132812 24.394531 19.132812 23.824219 L 19.132812 19.132812 L 19.953125 19.132812 L 19.953125 23.824219 C 19.953125 24.394531 20.417969 24.859375 20.992188 24.859375 C 21.5625 24.859375 22.027344 24.394531 22.027344 23.824219 L 22.027344 19.132812 L 22.4375 19.132812 C 22.667969 19.132812 22.882812 19.027344 23.027344 18.847656 C 23.171875 18.664062 23.226562 18.429688 23.171875 18.203125 L 22.757812 16.417969 L 23.085938 16.9375 C 23.390625 17.421875 24.03125 17.566406 24.515625 17.265625 C 25 16.960938 25.144531 16.320312 24.839844 15.835938 Z M 24.839844 15.835938 "/>
<path style=" stroke:none;fill-rule:nonzero;fill:rgb(0%,0%,0%);fill-opacity:1;" d="M 14.089844 5.65625 C 15.480469 5.65625 16.613281 4.527344 16.613281 3.128906 C 16.613281 1.734375 15.484375 0.605469 14.089844 0.605469 C 12.695312 0.605469 11.566406 1.734375 11.566406 3.128906 C 11.566406 4.527344 12.699219 5.65625 14.089844 5.65625 Z M 14.089844 5.65625 "/>
<path style=" stroke:none;fill-rule:nonzero;fill:rgb(0%,0%,0%);fill-opacity:1;" d="M 18.460938 9.414062 C 18.773438 9.617188 19.144531 9.734375 19.542969 9.734375 C 19.945312 9.734375 20.316406 9.617188 20.628906 9.414062 C 21.171875 9.058594 21.53125 8.445312 21.53125 7.746094 C 21.53125 6.648438 20.644531 5.757812 19.542969 5.757812 C 18.445312 5.757812 17.554688 6.648438 17.554688 7.746094 C 17.554688 8.445312 17.917969 9.058594 18.460938 9.414062 Z M 18.460938 9.414062 "/>
</g>
</svg>
