<?xml version="1.0" encoding="UTF-8"?>
<svg xmlns="http://www.w3.org/2000/svg" xmlns:xlink="http://www.w3.org/1999/xlink" width="25pt" height="25pt" viewBox="0 0 25 25" version="1.1">
<g id="surface1">
<path style=" stroke:none;fill-rule:nonzero;fill:rgb(0%,0%,0%);fill-opacity:1;" d="M 24.578125 7.84375 L 12.914062 1.21875 C 12.65625 1.074219 12.34375 1.074219 12.085938 1.21875 L 0.421875 7.84375 C 0.09375 8.03125 -0.0703125 8.417969 0.0273438 8.785156 C 0.125 9.152344 0.457031 9.40625 0.835938 9.40625 L 2.917969 9.40625 L 2.917969 23.054688 C 2.917969 23.515625 3.289062 23.890625 3.753906 23.890625 L 21.246094 23.890625 C 21.710938 23.890625 22.082031 23.515625 22.082031 23.054688 L 22.082031 9.40625 L 24.164062 9.40625 C 24.542969 9.40625 24.875 9.152344 24.972656 8.785156 C 25.070312 8.417969 24.90625 8.03125 24.578125 7.84375 Z M 20.410156 8.570312 L 20.410156 22.21875 L 4.589844 22.21875 L 4.589844 8.570312 C 4.589844 8.179688 4.320312 7.851562 3.957031 7.761719 L 12.5 2.90625 L 21.042969 7.761719 C 20.679688 7.851562 20.410156 8.179688 20.410156 8.570312 Z M 20.410156 8.570312 "/>
<path style=" stroke:none;fill-rule:nonzero;fill:rgb(0%,0%,0%);fill-opacity:1;" d="M 9.726562 8.847656 L 9.726562 11.242188 L 7.332031 11.242188 C 6.871094 11.242188 6.496094 11.617188 6.496094 12.078125 L 6.496094 15.953125 C 6.496094 16.414062 6.871094 16.789062 7.332031 16.789062 L 9.726562 16.789062 L 9.726562 19.179688 C 9.726562 19.640625 10.101562 20.015625 10.5625 20.015625 L 14.4375 20.015625 C 14.898438 20.015625 15.273438 19.640625 15.273438 19.179688 L 15.273438 16.789062 L 17.667969 16.789062 C 18.128906 16.789062 18.503906 16.414062 18.503906 15.953125 L 18.503906 12.078125 C 18.503906 11.617188 18.128906 11.242188 17.667969 11.242188 L 15.273438 11.242188 L 15.273438 8.847656 C 15.273438 8.386719 14.898438 8.011719 14.4375 8.011719 L 10.5625 8.011719 C 10.101562 8.011719 9.726562 8.386719 9.726562 8.847656 Z M 11.398438 12.078125 L 11.398438 9.683594 L 13.601562 9.683594 L 13.601562 12.078125 C 13.601562 12.539062 13.976562 12.914062 14.4375 12.914062 L 16.828125 12.914062 L 16.828125 15.117188 L 14.4375 15.117188 C 13.976562 15.117188 13.601562 15.488281 13.601562 15.953125 L 13.601562 18.34375 L 11.398438 18.34375 L 11.398438 15.953125 C 11.398438 15.488281 11.023438 15.117188 10.5625 15.117188 L 8.171875 15.117188 L 8.171875 12.914062 L 10.5625 12.914062 C 11.023438 12.914062 11.398438 12.539062 11.398438 12.078125 Z M 11.398438 12.078125 "/>
</g>
</svg>
