<?xml version="1.0" encoding="UTF-8"?>
<svg xmlns="http://www.w3.org/2000/svg" xmlns:xlink="http://www.w3.org/1999/xlink" width="25pt" height="25pt" viewBox="0 0 25 25" version="1.1">
<g id="surface1">
<path style=" stroke:none;fill-rule:nonzero;fill:rgb(0%,0%,0%);fill-opacity:1;" d="M 7.125 12.1875 L 9.199219 12.1875 L 9.199219 14.261719 L 7.125 14.261719 Z M 7.125 12.1875 "/>
<path style=" stroke:none;fill-rule:nonzero;fill:rgb(0%,0%,0%);fill-opacity:1;" d="M 7.125 3.890625 L 9.199219 3.890625 L 9.199219 5.964844 L 7.125 5.964844 Z M 7.125 3.890625 "/>
<path style=" stroke:none;fill-rule:nonzero;fill:rgb(0%,0%,0%);fill-opacity:1;" d="M 7.125 8.039062 L 9.199219 8.039062 L 9.199219 10.113281 L 7.125 10.113281 Z M 7.125 8.039062 "/>
<path style=" stroke:none;fill-rule:nonzero;fill:rgb(0%,0%,0%);fill-opacity:1;" d="M 11.273438 3.890625 L 13.347656 3.890625 L 13.347656 5.964844 L 11.273438 5.964844 Z M 11.273438 3.890625 "/>
<path style=" stroke:none;fill-rule:nonzero;fill:rgb(0%,0%,0%);fill-opacity:1;" d="M 11.273438 8.039062 L 13.347656 8.039062 L 13.347656 10.113281 L 11.273438 10.113281 Z M 11.273438 8.039062 "/>
<path style=" stroke:none;fill-rule:nonzero;fill:rgb(0%,0%,0%);fill-opacity:1;" d="M 16.460938 14.664062 C 15.460938 14.664062 14.644531 15.480469 14.644531 16.480469 C 14.644531 17.480469 15.460938 18.292969 16.460938 18.292969 C 17.460938 18.292969 18.273438 17.480469 18.273438 16.480469 C 18.273438 15.480469 17.460938 14.664062 16.460938 14.664062 Z M 16.460938 14.664062 "/>
<path style=" stroke:none;fill-rule:nonzero;fill:rgb(0%,0%,0%);fill-opacity:1;" d="M 17.238281 11.230469 L 17.238281 0 L 3.234375 0 L 3.234375 23.082031 L 14.933594 23.082031 L 16.460938 25 L 20.625 19.765625 C 21.371094 18.820312 21.765625 17.683594 21.765625 16.480469 C 21.765625 13.816406 19.796875 11.609375 17.238281 11.230469 Z M 4.789062 21.523438 L 4.789062 1.554688 L 15.683594 1.554688 L 15.683594 11.230469 C 13.125 11.609375 11.152344 13.816406 11.152344 16.480469 C 11.152344 17.683594 11.550781 18.820312 12.296875 19.769531 L 13.695312 21.523438 Z M 19.402344 18.800781 L 16.460938 22.5 L 13.515625 18.800781 C 12.988281 18.132812 12.710938 17.332031 12.710938 16.480469 C 12.710938 14.410156 14.390625 12.730469 16.460938 12.730469 C 18.527344 12.730469 20.210938 14.410156 20.210938 16.480469 C 20.210938 17.332031 19.929688 18.132812 19.402344 18.800781 Z M 19.402344 18.800781 "/>
</g>
</svg>
