<?xml version="1.0" encoding="UTF-8"?>
<svg xmlns="http://www.w3.org/2000/svg" xmlns:xlink="http://www.w3.org/1999/xlink" width="25pt" height="25pt" viewBox="0 0 25 25" version="1.1">
<g id="surface1">
<path style=" stroke:none;fill-rule:nonzero;fill:rgb(0%,0%,0%);fill-opacity:1;" d="M 20.589844 5.777344 C 20.433594 5.617188 20.175781 5.617188 20.019531 5.777344 C 19.859375 5.933594 19.859375 6.191406 20.019531 6.351562 C 22.007812 8.339844 23.105469 10.984375 23.105469 13.800781 C 23.105469 19.609375 18.382812 24.332031 12.570312 24.332031 C 6.761719 24.332031 2.039062 19.609375 2.039062 13.800781 C 2.039062 8.058594 6.660156 3.382812 12.378906 3.277344 L 10.332031 5.324219 C 10.171875 5.480469 10.171875 5.738281 10.332031 5.898438 C 10.410156 5.976562 10.515625 6.015625 10.617188 6.015625 C 10.722656 6.015625 10.824219 5.976562 10.90625 5.898438 L 13.792969 3.007812 L 10.90625 0.117188 C 10.746094 -0.0390625 10.488281 -0.0390625 10.332031 0.117188 C 10.175781 0.277344 10.175781 0.535156 10.332031 0.691406 L 12.113281 2.476562 C 6.074219 2.71875 1.226562 7.695312 1.226562 13.796875 C 1.226562 20.054688 6.316406 25.144531 12.570312 25.144531 C 18.828125 25.144531 23.917969 20.054688 23.917969 13.796875 C 23.914062 10.769531 22.734375 7.921875 20.589844 5.777344 Z M 20.589844 5.777344 "/>
<path style=" stroke:none;fill-rule:nonzero;fill:rgb(0%,0%,0%);fill-opacity:1;" d="M 12.492188 7.511719 C 12.480469 7.734375 12.652344 7.925781 12.875 7.9375 C 13.640625 7.980469 14.375 8.171875 15.054688 8.511719 C 15.113281 8.539062 15.175781 8.550781 15.238281 8.550781 C 15.386719 8.550781 15.527344 8.46875 15.601562 8.328125 C 15.699219 8.128906 15.617188 7.882812 15.417969 7.785156 C 14.632812 7.394531 13.796875 7.175781 12.921875 7.128906 C 12.683594 7.113281 12.503906 7.285156 12.492188 7.511719 Z M 12.492188 7.511719 "/>
<path style=" stroke:none;fill-rule:nonzero;fill:rgb(0%,0%,0%);fill-opacity:1;" d="M 17.90625 11.875 C 17.960938 12.050781 18.121094 12.164062 18.296875 12.164062 C 18.332031 12.164062 18.375 12.160156 18.414062 12.148438 C 18.628906 12.082031 18.75 11.855469 18.683594 11.640625 C 18.429688 10.804688 18.011719 10.042969 17.445312 9.375 C 17.300781 9.207031 17.046875 9.1875 16.875 9.328125 C 16.703125 9.472656 16.683594 9.730469 16.828125 9.902344 C 17.320312 10.484375 17.683594 11.148438 17.90625 11.875 Z M 17.90625 11.875 "/>
<path style=" stroke:none;fill-rule:nonzero;fill:rgb(0%,0%,0%);fill-opacity:1;" d="M 18.117188 14.121094 C 18.035156 14.882812 17.800781 15.601562 17.425781 16.261719 C 17.3125 16.457031 17.382812 16.703125 17.578125 16.816406 C 17.640625 16.851562 17.710938 16.867188 17.777344 16.867188 C 17.917969 16.867188 18.054688 16.792969 18.132812 16.664062 C 18.5625 15.90625 18.828125 15.078125 18.925781 14.210938 C 18.949219 13.988281 18.789062 13.789062 18.566406 13.761719 C 18.34375 13.738281 18.140625 13.898438 18.117188 14.121094 Z M 18.117188 14.121094 "/>
<path style=" stroke:none;fill-rule:nonzero;fill:rgb(0%,0%,0%);fill-opacity:1;" d="M 13.613281 19.417969 C 13.660156 19.605469 13.824219 19.730469 14.007812 19.730469 C 14.039062 19.730469 14.070312 19.722656 14.101562 19.714844 C 14.953125 19.503906 15.738281 19.132812 16.429688 18.605469 C 16.609375 18.46875 16.644531 18.214844 16.507812 18.035156 C 16.371094 17.859375 16.117188 17.820312 15.941406 17.960938 C 15.335938 18.417969 14.648438 18.746094 13.910156 18.929688 C 13.691406 18.980469 13.558594 19.203125 13.613281 19.417969 Z M 13.613281 19.417969 "/>
<path style=" stroke:none;fill-rule:nonzero;fill:rgb(0%,0%,0%);fill-opacity:1;" d="M 6.699219 10.984375 C 6.351562 11.785156 6.179688 12.632812 6.179688 13.507812 C 6.179688 13.734375 6.359375 13.914062 6.582031 13.914062 C 6.804688 13.914062 6.988281 13.734375 6.988281 13.507812 C 6.988281 12.746094 7.140625 12.003906 7.441406 11.300781 C 7.53125 11.097656 7.4375 10.855469 7.230469 10.769531 C 7.023438 10.679688 6.785156 10.777344 6.699219 10.984375 Z M 6.699219 10.984375 "/>
<path style=" stroke:none;fill-rule:nonzero;fill:rgb(0%,0%,0%);fill-opacity:1;" d="M 9.117188 18.890625 C 9.851562 19.363281 10.664062 19.675781 11.527344 19.816406 C 11.546875 19.824219 11.570312 19.824219 11.59375 19.824219 C 11.789062 19.824219 11.960938 19.683594 11.992188 19.484375 C 12.027344 19.261719 11.878906 19.054688 11.65625 19.019531 C 10.902344 18.894531 10.195312 18.621094 9.554688 18.210938 C 9.367188 18.089844 9.117188 18.144531 8.996094 18.332031 C 8.875 18.519531 8.929688 18.773438 9.117188 18.890625 Z M 9.117188 18.890625 "/>
<path style=" stroke:none;fill-rule:nonzero;fill:rgb(0%,0%,0%);fill-opacity:1;" d="M 8.734375 9.457031 C 9.289062 8.929688 9.933594 8.53125 10.648438 8.269531 C 10.855469 8.191406 10.964844 7.957031 10.886719 7.746094 C 10.808594 7.535156 10.578125 7.429688 10.367188 7.507812 C 9.550781 7.804688 8.8125 8.265625 8.175781 8.867188 C 8.015625 9.019531 8.007812 9.277344 8.160156 9.441406 C 8.242188 9.523438 8.34375 9.566406 8.453125 9.566406 C 8.554688 9.570312 8.65625 9.53125 8.734375 9.457031 Z M 8.734375 9.457031 "/>
<path style=" stroke:none;fill-rule:nonzero;fill:rgb(0%,0%,0%);fill-opacity:1;" d="M 7.738281 19.449219 C 7.738281 19.671875 7.921875 19.855469 8.144531 19.855469 C 8.367188 19.855469 8.550781 19.671875 8.550781 19.449219 L 8.550781 17.84375 L 10.15625 17.84375 C 10.378906 17.84375 10.5625 17.660156 10.5625 17.4375 C 10.5625 17.214844 10.378906 17.03125 10.15625 17.03125 L 7.738281 17.03125 Z M 7.738281 19.449219 "/>
</g>
</svg>
