<?xml version="1.0" encoding="UTF-8"?>
<svg xmlns="http://www.w3.org/2000/svg" xmlns:xlink="http://www.w3.org/1999/xlink" width="25pt" height="25pt" viewBox="0 0 25 25" version="1.1">
<g id="surface1">
<path style=" stroke:none;fill-rule:nonzero;fill:rgb(0%,0%,0%);fill-opacity:1;" d="M 19.964844 11.082031 C 19.722656 10.890625 17.566406 8.519531 16.347656 7.414062 C 16.34375 7.410156 16.34375 7.410156 16.34375 7.40625 L 16.34375 2.296875 C 16.34375 1.03125 15.308594 0 14.042969 0 L 6.515625 0 C 5.335938 0 4.378906 0.964844 4.378906 2.136719 L 4.378906 14.113281 C 4.378906 15.378906 5.410156 16.414062 6.675781 16.414062 L 9.421875 16.414062 C 9.515625 16.414062 9.59375 16.328125 9.582031 16.234375 L 9.460938 15.21875 C 9.453125 15.136719 9.382812 15.078125 9.300781 15.078125 L 8.976562 15.078125 C 8.886719 15.078125 8.8125 15.007812 8.8125 14.917969 L 8.8125 1.3125 C 8.8125 1.222656 8.886719 1.152344 8.976562 1.152344 L 14.058594 1.152344 C 14.574219 1.152344 14.992188 1.570312 14.992188 2.085938 L 14.992188 14.296875 C 14.992188 14.648438 14.75 14.949219 14.421875 15.042969 C 14.417969 15.042969 14.417969 15.042969 14.414062 15.042969 C 13.855469 14.742188 13.203125 13.453125 13.105469 13.253906 C 13.09375 13.238281 13.089844 13.214844 13.089844 13.199219 C 13.054688 12.875 12.683594 9.707031 11 9.707031 C 10.953125 9.707031 10.90625 9.707031 10.859375 9.714844 C 10.859375 9.714844 9.507812 9.828125 10.625 13.671875 C 10.625 13.683594 10.628906 13.6875 10.628906 13.699219 L 11.121094 17.957031 C 11.121094 17.964844 11.121094 17.96875 11.128906 17.980469 C 11.167969 18.140625 11.730469 20.3125 13.175781 21.855469 C 13.203125 21.886719 13.21875 21.921875 13.21875 21.964844 L 13.21875 22.332031 C 13.21875 22.34375 13.214844 22.347656 13.203125 22.347656 L 13.074219 22.347656 C 12.757812 22.347656 12.496094 22.609375 12.496094 22.925781 L 12.496094 24.425781 C 12.496094 24.742188 12.757812 25 13.074219 25 L 19.179688 25 C 19.496094 25 19.757812 24.742188 19.757812 24.425781 L 19.757812 22.933594 C 19.757812 22.617188 19.496094 22.359375 19.179688 22.359375 C 19.171875 22.359375 19.164062 22.355469 19.164062 22.34375 C 19.367188 20.464844 20.09375 14.042969 20.484375 13.539062 C 20.492188 13.523438 20.503906 13.507812 20.507812 13.484375 C 20.578125 13.253906 20.914062 11.824219 19.964844 11.082031 Z M 6.78125 14.929688 C 6.78125 15.011719 6.710938 15.074219 6.632812 15.074219 C 6.125 15.074219 5.710938 14.660156 5.710938 14.148438 L 5.710938 2.074219 C 5.710938 1.566406 6.125 1.152344 6.632812 1.152344 C 6.71875 1.152344 6.78125 1.21875 6.78125 1.296875 Z M 6.78125 14.929688 "/>
</g>
</svg>
