<?xml version="1.0" encoding="UTF-8"?>
<svg xmlns="http://www.w3.org/2000/svg" xmlns:xlink="http://www.w3.org/1999/xlink" width="25pt" height="25pt" viewBox="0 0 25 25" version="1.1">
<g id="surface1">
<path style=" stroke:none;fill-rule:nonzero;fill:rgb(0%,0%,0%);fill-opacity:1;" d="M 24.992188 8.320312 C 24.953125 7.605469 24.789062 6.953125 24.664062 6.535156 C 24.605469 6.34375 24.539062 6.160156 24.472656 5.988281 C 24.460938 5.957031 24.449219 5.929688 24.441406 5.902344 C 24.519531 5.535156 24.554688 5.148438 24.542969 4.777344 C 24.53125 4.425781 24.339844 4.121094 24.035156 3.960938 C 23.726562 3.796875 23.367188 3.8125 23.074219 4.003906 C 22.882812 4.125 22.695312 4.269531 22.511719 4.441406 C 20.828125 3.984375 19.058594 3.984375 17.375 4.441406 C 17.191406 4.269531 17.003906 4.125 16.8125 4.003906 C 16.519531 3.8125 16.160156 3.796875 15.851562 3.960938 C 15.546875 4.121094 15.355469 4.425781 15.34375 4.777344 C 15.332031 5.148438 15.367188 5.535156 15.445312 5.902344 C 15.375 6.078125 15.246094 6.414062 15.132812 6.855469 L 13.035156 6.855469 C 10.304688 6.855469 7.6875 7.867188 5.667969 9.707031 C 5.292969 10.046875 4.945312 10.414062 4.625 10.800781 C 5.238281 9.261719 6.046875 7.632812 7.0625 6.339844 C 7.527344 5.753906 7.53125 4.929688 7.078125 4.332031 C 6.746094 3.894531 6.21875 3.65625 5.671875 3.6875 C 5.121094 3.722656 4.628906 4.027344 4.351562 4.503906 C 3.59375 5.8125 2.5 7.878906 1.605469 10.308594 C 0.539062 13.183594 0 15.875 0 18.308594 L 0 18.351562 C 0.0117188 19.984375 1.351562 21.3125 2.992188 21.3125 L 21.808594 21.3125 C 21.925781 21.3125 22.035156 21.261719 22.113281 21.175781 C 22.1875 21.085938 22.222656 20.96875 22.203125 20.855469 C 22.140625 20.441406 21.890625 20.070312 21.46875 19.757812 C 21.199219 19.554688 20.910156 19.417969 20.699219 19.332031 C 20.460938 18.5625 20.078125 17.820312 19.683594 17.183594 C 23.363281 15.089844 23.636719 12.625 23.621094 11.847656 C 24.824219 10.847656 25.050781 9.445312 24.992188 8.320312 Z M 16.226562 6.109375 C 16.265625 6.027344 16.273438 5.933594 16.25 5.847656 C 16.171875 5.511719 16.132812 5.148438 16.144531 4.800781 C 16.144531 4.722656 16.195312 4.683594 16.226562 4.667969 C 16.242188 4.660156 16.265625 4.648438 16.296875 4.648438 C 16.324219 4.648438 16.351562 4.65625 16.382812 4.675781 C 16.582031 4.800781 16.78125 4.96875 16.976562 5.167969 C 17.082031 5.269531 17.234375 5.308594 17.375 5.269531 C 19.054688 4.773438 20.832031 4.773438 22.511719 5.269531 C 22.652344 5.308594 22.804688 5.269531 22.910156 5.167969 C 23.105469 4.96875 23.304688 4.800781 23.503906 4.675781 C 23.570312 4.632812 23.632812 4.652344 23.660156 4.667969 C 23.691406 4.683594 23.742188 4.71875 23.742188 4.800781 C 23.753906 5.148438 23.714844 5.511719 23.632812 5.847656 C 23.613281 5.9375 23.625 6.03125 23.660156 6.109375 C 23.691406 6.183594 24.65625 8.382812 23.933594 10.117188 C 23.59375 10.929688 22.921875 11.527344 21.941406 11.890625 C 21.304688 12.125 18.582031 12.125 17.945312 11.890625 C 16.964844 11.527344 16.292969 10.929688 15.953125 10.117188 C 15.222656 8.363281 16.21875 6.128906 16.226562 6.109375 Z M 0.796875 18.347656 L 0.796875 18.308594 C 0.796875 16.035156 1.351562 11.269531 5.042969 4.90625 C 5.1875 4.65625 5.433594 4.503906 5.71875 4.484375 C 6.003906 4.46875 6.269531 4.589844 6.441406 4.816406 C 6.675781 5.121094 6.671875 5.546875 6.4375 5.84375 C 3.605469 9.441406 2.382812 15.285156 2.332031 15.53125 C 2.332031 15.535156 2.332031 15.535156 2.332031 15.539062 C 2.246094 15.945312 2.183594 16.359375 2.144531 16.777344 L 2.023438 18.058594 C 2.023438 18.070312 2.023438 18.082031 2.023438 18.09375 L 2.023438 20.289062 C 1.300781 19.933594 0.804688 19.195312 0.796875 18.347656 Z M 15.019531 18.796875 L 15.015625 18.777344 L 15.042969 18.800781 C 15.035156 18.800781 15.027344 18.796875 15.019531 18.796875 Z M 16.195312 19.75 L 17.128906 20.515625 L 16.34375 20.515625 L 16.34375 20.453125 C 16.347656 20.203125 16.292969 19.964844 16.195312 19.75 Z M 22.492188 13.316406 C 21.960938 14.511719 20.839844 15.613281 19.246094 16.515625 C 18.714844 15.757812 18.253906 15.257812 18.21875 15.214844 C 18.066406 15.054688 17.816406 15.042969 17.652344 15.191406 C 17.492188 15.34375 17.480469 15.59375 17.628906 15.757812 C 17.648438 15.777344 19.433594 17.734375 19.988281 19.742188 C 20.023438 19.871094 20.121094 19.972656 20.246094 20.015625 C 20.5 20.101562 20.878906 20.277344 21.136719 20.515625 L 18.386719 20.515625 L 14.582031 17.390625 L 13.894531 15.164062 C 13.144531 12.757812 10.785156 11.207031 8.277344 11.476562 C 5.59375 11.769531 3.566406 14.027344 3.566406 16.730469 L 3.566406 18.039062 C 3.566406 18.261719 3.746094 18.441406 3.964844 18.441406 C 4.183594 18.441406 4.363281 18.261719 4.363281 18.039062 L 4.363281 16.730469 C 4.363281 14.433594 6.085938 12.519531 8.363281 12.273438 C 10.492188 12.042969 12.496094 13.355469 13.128906 15.402344 L 14.160156 18.71875 C 12.957031 18.566406 11.585938 18 11.570312 17.992188 C 11.367188 17.90625 11.132812 18.003906 11.046875 18.207031 C 10.960938 18.410156 11.058594 18.644531 11.261719 18.726562 C 11.34375 18.761719 13.253906 19.550781 14.703125 19.558594 C 15.171875 19.574219 15.550781 19.96875 15.546875 20.441406 L 15.542969 20.515625 L 2.988281 20.515625 C 2.933594 20.515625 2.875 20.511719 2.820312 20.507812 L 2.820312 18.113281 L 2.9375 16.851562 C 3.171875 14.332031 4.332031 12.003906 6.207031 10.296875 C 8.078125 8.589844 10.503906 7.652344 13.035156 7.652344 L 14.964844 7.652344 C 14.835938 8.488281 14.828125 9.492188 15.214844 10.421875 C 15.644531 11.449219 16.46875 12.195312 17.667969 12.640625 C 18.085938 12.792969 19.011719 12.871094 19.941406 12.871094 C 20.871094 12.871094 21.800781 12.792969 22.214844 12.640625 C 22.417969 12.566406 22.601562 12.484375 22.777344 12.398438 C 22.730469 12.652344 22.648438 12.964844 22.492188 13.316406 Z M 22.492188 13.316406 "/>
</g>
</svg>
