<?xml version="1.0" encoding="UTF-8"?>
<svg xmlns="http://www.w3.org/2000/svg" xmlns:xlink="http://www.w3.org/1999/xlink" width="25pt" height="25pt" viewBox="0 0 25 25" version="1.1">
<g id="surface1">
<path style=" stroke:none;fill-rule:nonzero;fill:rgb(0%,0%,0%);fill-opacity:1;" d="M 20.429688 5.011719 L 20.429688 2.859375 L 6.433594 2.859375 L 14.667969 11.71875 C 15.183594 12.273438 15.179688 13.136719 14.652344 13.683594 L 6.507812 22.152344 L 20.429688 22.152344 L 20.429688 20.851562 C 20.429688 20.0625 21.070312 19.421875 21.859375 19.421875 C 22.648438 19.421875 23.289062 20.0625 23.289062 20.851562 L 23.289062 23.582031 C 23.289062 24.371094 22.648438 25.011719 21.859375 25.011719 L 3.152344 25.011719 C 2.578125 25.011719 2.0625 24.667969 1.835938 24.140625 C 1.609375 23.613281 1.722656 23.003906 2.121094 22.589844 L 11.65625 12.675781 L 2.105469 2.402344 C 1.71875 1.984375 1.613281 1.378906 1.839844 0.859375 C 2.066406 0.335938 2.582031 0 3.152344 0 L 21.859375 0 C 22.648438 0 23.289062 0.640625 23.289062 1.429688 L 23.289062 5.011719 C 23.289062 5.800781 22.648438 6.441406 21.859375 6.441406 C 21.070312 6.441406 20.429688 5.800781 20.429688 5.011719 Z M 20.429688 5.011719 "/>
</g>
</svg>
