<?xml version="1.0" encoding="UTF-8"?>
<svg xmlns="http://www.w3.org/2000/svg" xmlns:xlink="http://www.w3.org/1999/xlink" width="25pt" height="25pt" viewBox="0 0 25 25" version="1.1">
<g id="surface1">
<path style=" stroke:none;fill-rule:nonzero;fill:rgb(12.941176%,9.803922%,8.235294%);fill-opacity:1;" d="M 24.992188 14.542969 L 24.730469 11.859375 C 24.605469 10.566406 23.90625 9.414062 22.835938 8.714844 C 23.015625 8.578125 23.121094 8.347656 23.082031 8.109375 C 23.03125 7.765625 22.707031 7.527344 22.359375 7.582031 L 20.902344 7.804688 C 17.894531 6.714844 12.851562 6.117188 5.96875 9.515625 C 5.308594 9.84375 4.597656 10.058594 3.863281 10.152344 C 2.320312 10.351562 1.214844 10.964844 0.582031 11.976562 C -0.460938 13.628906 0.207031 15.699219 0.238281 15.785156 C 0.324219 16.042969 0.566406 16.21875 0.839844 16.21875 L 2.941406 16.21875 C 3.21875 17.269531 4.179688 18.050781 5.320312 18.050781 C 6.460938 18.050781 7.421875 17.269531 7.703125 16.21875 L 18.5625 16.21875 C 18.84375 17.269531 19.804688 18.050781 20.945312 18.050781 C 22.085938 18.050781 23.046875 17.269531 23.328125 16.21875 L 23.472656 16.21875 C 23.902344 16.21875 24.316406 16.035156 24.605469 15.71875 C 24.894531 15.398438 25.035156 14.972656 24.992188 14.542969 Z M 22.144531 15.585938 C 22.144531 16.246094 21.605469 16.785156 20.945312 16.785156 C 20.285156 16.785156 19.746094 16.246094 19.746094 15.585938 C 19.746094 14.925781 20.285156 14.386719 20.945312 14.386719 C 21.605469 14.386719 22.144531 14.925781 22.144531 15.585938 Z M 6.519531 15.585938 C 6.519531 16.246094 5.984375 16.785156 5.320312 16.785156 C 4.660156 16.785156 4.121094 16.246094 4.121094 15.585938 C 4.121094 14.925781 4.660156 14.386719 5.320312 14.386719 C 5.984375 14.386719 6.519531 14.925781 6.519531 15.585938 Z M 23.328125 14.953125 C 23.046875 13.898438 22.085938 13.121094 20.945312 13.121094 C 19.804688 13.121094 18.84375 13.898438 18.5625 14.953125 L 7.703125 14.953125 C 7.421875 13.898438 6.460938 13.121094 5.320312 13.121094 C 4.179688 13.121094 3.21875 13.898438 2.941406 14.953125 L 1.335938 14.953125 C 1.238281 14.398438 1.164062 13.417969 1.65625 12.644531 C 2.082031 11.972656 2.878906 11.554688 4.023438 11.40625 C 4.898438 11.292969 5.742188 11.039062 6.527344 10.652344 C 13.042969 7.433594 17.734375 7.996094 20.496094 9.007812 C 20.558594 9.042969 20.625 9.066406 20.695312 9.082031 C 21.15625 9.257812 21.558594 9.445312 21.902344 9.628906 C 22.785156 10.097656 23.375 10.976562 23.472656 11.984375 L 23.734375 14.667969 C 23.742188 14.765625 23.695312 14.835938 23.667969 14.867188 C 23.636719 14.898438 23.574219 14.953125 23.472656 14.953125 Z M 23.328125 14.953125 "/>
</g>
</svg>
